<?xml version="1.0" encoding="iso-8859-1"?>
<!-- Generator: Adobe Illustrator 16.0.0, SVG Export Plug-In . SVG Version: 6.00 Build 0)  -->
<!DOCTYPE svg PUBLIC "-//W3C//DTD SVG 1.1//EN" "http://www.w3.org/Graphics/SVG/1.1/DTD/svg11.dtd">
<svg version="1.1" id="Capa_1" xmlns="http://www.w3.org/2000/svg" xmlns:xlink="http://www.w3.org/1999/xlink" x="0px" y="0px"
	 width="492.364px" height="492.364px" viewBox="0 0 492.364 492.364" style="enable-background:new 0 0 492.364 492.364;"
	 xml:space="preserve">
<g>
	<path d="M474.562,241.993v8.843c0,4.883-3.951,8.843-8.83,8.843h-85.464v17.674c0,4.888-3.959,8.843-8.843,8.843h-87.847v104.172
		c0,4.88-3.962,8.843-8.843,8.843h-17.5v84.317c0,4.883-3.962,8.837-8.843,8.837h-8.839c-4.881,0-8.843-3.954-8.843-8.837v-84.312
		h-11.962c-4.881,0-8.843-3.962-8.843-8.843V286.201h-87.857c-4.87,0-8.832-3.956-8.832-8.842v-17.681H26.643
		c-4.892,0-8.84-3.95-8.84-8.831v-8.843c0-4.885,3.948-8.846,8.84-8.846h86.573v-22.093c0-4.886,3.962-8.84,8.832-8.84h87.857
		V90.969c0-4.879,3.962-8.839,8.843-8.839h14.17V8.836c0-4.88,3.962-8.836,8.843-8.836h8.844c4.879,0,8.84,3.956,8.84,8.836v73.293
		h15.29c4.881,0,8.843,3.96,8.843,8.839v111.249h87.847c4.884,0,8.843,3.958,8.843,8.844v22.092h85.464
		C470.61,233.153,474.562,237.115,474.562,241.993z"/>
</g>
<g>
</g>
<g>
</g>
<g>
</g>
<g>
</g>
<g>
</g>
<g>
</g>
<g>
</g>
<g>
</g>
<g>
</g>
<g>
</g>
<g>
</g>
<g>
</g>
<g>
</g>
<g>
</g>
<g>
</g>
</svg>
